HIERARCHY
ROOT Hips
{
	OFFSET 0.00 0.00 0.00
	CHANNELS 6 Xposition Yposition Zposition Xrotation Yrotation Zrotation
	JOINT Spine
	{
		OFFSET 0.00000 1.66264 2.49395
		CHANNELS 3 Xrotation Yrotation Zrotation
		JOINT Spine1
		{
			OFFSET 0.00000 0.57743 3.27475
			CHANNELS 3 Xrotation Yrotation Zrotation
			JOINT Spine2
			{
				OFFSET 0.00000 0.28982 3.31262
				CHANNELS 3 Xrotation Yrotation Zrotation
				JOINT Spine3
				{
					OFFSET 0.00000 0.00000 3.32527
					CHANNELS 3 Xrotation Yrotation Zrotation
					JOINT Neck
					{
						OFFSET 0.00000 -1.24697 8.72884
						CHANNELS 3 Xrotation Yrotation Zrotation
						JOINT Head
						{
							OFFSET 0.00000 -0.79396 4.50279
							CHANNELS 3 Xrotation Yrotation Zrotation
							End Site
							{
								OFFSET 0.00000 0.00001 5.38279
							}
						}
					}
					JOINT RightShoulder
					{
						OFFSET -1.14808 -1.91346 6.19963
						CHANNELS 3 Xrotation Yrotation Zrotation
						JOINT RightArm
						{
							OFFSET -5.70212 0.00000 0.00000
							CHANNELS 3 Xrotation Yrotation Zrotation
							JOINT RightForeArm
							{
								OFFSET -10.82477 0.00000 0.00000
								CHANNELS 3 Xrotation Yrotation Zrotation
								JOINT RightHand
								{
									OFFSET -10.02856 0.00000 0.00000
									CHANNELS 3 Xrotation Yrotation Zrotation
									JOINT RightHandEnd
									{
										OFFSET -2.68345 0.00000 0.00000
										CHANNELS 3 Xrotation Yrotation Zrotation
										End Site
										{
											OFFSET -2.68345 0.00000 0.00000
										}
									}
									JOINT RightHandThumb1
									{
										OFFSET -1.07338 -1.78897 -0.71559
										CHANNELS 3 Yrotation Xrotation Zrotation
										End Site
										{
											OFFSET -2.59202 -0.69453 0.00000
										}
									}
								}
							}
						}
					}
					JOINT LeftShoulder
					{
						OFFSET 1.14808 -1.91346 6.19963
						CHANNELS 3 Xrotation Yrotation Zrotation
						JOINT LeftArm
						{
							OFFSET 5.70212 0.00000 0.00000
							CHANNELS 3 Xrotation Yrotation Zrotation
							JOINT LeftForeArm
							{
								OFFSET 10.82477 0.00000 0.00000
								CHANNELS 3 Xrotation Yrotation Zrotation
								JOINT LeftHand
								{
									OFFSET 10.02856 0.00000 0.00000
									CHANNELS 3 Xrotation Yrotation Zrotation
									JOINT LeftHandEnd
									{
										OFFSET 2.68345 0.00000 0.00000
										CHANNELS 3 Xrotation Yrotation Zrotation
										End Site
										{
											OFFSET 2.68345 0.00000 0.00000
										}
									}
									JOINT LeftHandThumb1
									{
										OFFSET 1.07338 -1.78897 -0.71559
										CHANNELS 3 Yrotation Xrotation Zrotation
										End Site
										{
											OFFSET 2.59202 -0.69453 0.00000
										}
									}
								}
							}
						}
					}
				}
			}
		}
	}
	JOINT RightUpLeg
	{
		OFFSET -3.40597 0.00000 -0.99500
		CHANNELS 3 Xrotation Yrotation Zrotation
		JOINT RightLeg
		{
			OFFSET 0.00001 0.00000 -17.05191
			CHANNELS 3 Xrotation Yrotation Zrotation
			JOINT RightFoot
			{
				OFFSET 0.00001 0.00000 -15.93260
				CHANNELS 3 Xrotation Yrotation Zrotation
				JOINT RightToeBase
				{
					OFFSET 0.00000 -4.98016 -1.81263
					CHANNELS 3 Xrotation Yrotation Zrotation
					End Site
					{
						OFFSET 0.00000 -2.75539 -0.00000
					}
				}
			}
		}
	}
	JOINT LeftUpLeg
	{
		OFFSET 3.40597 0.00000 -0.99500
		CHANNELS 3 Xrotation Yrotation Zrotation
		JOINT LeftLeg
		{
			OFFSET 0.00001 0.00000 -17.05191
			CHANNELS 3 Xrotation Yrotation Zrotation
			JOINT LeftFoot
			{
				OFFSET 0.00001 0.00000 -15.93260
				CHANNELS 3 Xrotation Yrotation Zrotation
				JOINT LeftToeBase
				{
					OFFSET 0.00000 -4.98016 -1.81263
					CHANNELS 3 Xrotation Yrotation Zrotation
					End Site
					{
						OFFSET 0.00000 -2.75539 -0.00000
					}
				}
			}
		}
	}
}
MOTION
Frames: 12
Frame Time: 0.008342
 9.0174 -22.2583 34.9752 34.7703 5.3230 -18.9089 0.7775 0.0217 3.9967 2.7513 0.1702 0.4180 4.2578 3.9157 8.0572 1.6176 0.1272 0.9427 -42.7275 -7.1229 1.7900 14.2740 5.0026 3.9718 -21.2835 6.6857 35.2657 -10.2258 -4.4942 52.7470 0.0000 0.0000 17.7441 -7.0740 15.4943 5.0979 0.0000 -0.0000 0.0000 -0.0000 0.0000 0.0000 -23.1790 -11.5653 -29.5803 -7.1772 1.0086 -57.5507 -0.0000 -0.0000 -21.5160 -4.7685 -13.4469 -2.3337 0.0000 0.0000 0.0000 -0.0000 -0.0000 0.0000 25.3310 17.7971 4.1494 84.4892 0.0000 0.0000 3.0149 -16.4772 -28.4746 -0.0111 0.0000 -0.0000 -53.2028 -13.9171 15.2512 25.1073 0.0000 0.0000 -12.1120 -1.0005 14.2263 -1.3551 0.0000 -0.0000
 9.0298 -22.2357 34.9514 34.9479 5.2503 -18.9515 0.7343 0.0716 4.0117 2.7241 0.1466 0.4216 4.3167 3.9566 8.1176 1.6378 0.1144 0.9607 -42.9466 -7.0900 1.8187 14.4633 4.9857 3.9252 -21.5316 6.8407 35.4128 -10.1741 -4.2177 52.8481 0.0000 0.0000 17.1264 -7.1005 15.3669 5.1421 0.0000 0.0000 0.0000 -0.0000 0.0000 0.0000 -23.4107 -11.6596 -29.6990 -7.1798 0.7569 -57.7385 -0.0000 -0.0000 -21.0151 -4.8215 -13.2170 -2.2590 0.0000 -0.0000 -0.0000 0.0000 0.0000 0.0000 25.5511 18.0146 3.8833 84.0336 0.0000 0.0000 2.8988 -16.4784 -28.5901 0.1214 0.0000 0.0000 -53.5735 -13.9012 15.0227 25.3676 0.0000 0.0000 -12.1965 -1.1162 14.3692 -1.3281 0.0000 -0.0000
 9.0410 -22.2137 34.9295 35.1139 5.1945 -18.9887 0.7049 0.1124 4.0251 2.6811 0.1245 0.4256 4.3922 3.9960 8.1733 1.6592 0.1049 0.9818 -43.1502 -7.0876 1.8180 14.6165 4.9940 3.9046 -21.7559 6.9768 35.5401 -10.1547 -3.9862 52.9559 0.0000 0.0000 16.5441 -7.1451 15.2562 5.1823 -0.0000 0.0000 -0.0000 -0.0000 -0.0000 -0.0000 -23.6399 -11.7551 -29.8119 -7.1881 0.5272 -57.9294 -0.0000 -0.0000 -20.5383 -4.8524 -13.0020 -2.1788 0.0000 0.0000 0.0000 0.0000 0.0000 0.0000 25.7510 18.2034 3.6462 83.6196 0.0000 0.0000 2.7755 -16.4762 -28.7035 0.2480 0.0000 0.0000 -53.9143 -13.8919 14.7885 25.5978 0.0000 0.0000 -12.2711 -1.2210 14.4873 -1.2969 0.0000 -0.0000
 9.0516 -22.1921 34.9098 35.2846 5.1404 -19.0150 0.6610 0.1525 4.0293 2.6364 0.1029 0.4304 4.4736 4.0343 8.2287 1.6830 0.0958 1.0022 -43.3361 -7.1031 1.8027 14.7466 5.0110 3.8975 -21.9629 7.0935 35.6566 -10.1584 -3.8102 53.0573 0.0000 0.0000 16.0059 -7.2068 15.1648 5.2158 -0.0000 -0.0000 0.0000 0.0000 -0.0000 -0.0000 -23.8597 -11.8415 -29.9246 -7.2069 0.3245 -58.1089 -0.0000 -0.0000 -20.1011 -4.8469 -12.8048 -2.0876 -0.0000 -0.0000 -0.0000 -0.0000 0.0000 0.0000 25.9116 18.3704 3.4287 83.2535 0.0000 0.0000 2.6524 -16.4771 -28.8011 0.3631 0.0000 0.0000 -54.2380 -13.8793 14.5788 25.7842 0.0000 0.0000 -12.3294 -1.3083 14.5652 -1.2618 0.0000 -0.0000
 9.0614 -22.1714 34.8923 35.4530 5.0932 -19.0274 0.6155 0.1862 4.0311 2.5879 0.0848 0.4351 4.5603 4.0730 8.2768 1.7058 0.0900 1.0213 -43.5053 -7.1418 1.7657 14.8554 5.0412 3.9073 -22.1479 7.1894 35.7509 -10.1772 -3.6751 53.1684 0.0000 0.0000 15.4973 -7.3042 15.0893 5.2511 0.0000 -0.0000 0.0000 0.0000 0.0000 -0.0000 -24.0738 -11.9193 -30.0320 -7.2284 0.1479 -58.2912 -0.0000 -0.0000 -19.6944 -4.8033 -12.6293 -1.9884 0.0000 -0.0000 -0.0000 0.0000 0.0000 0.0000 26.0421 18.5098 3.2300 82.9349 0.0000 0.0000 2.5395 -16.4884 -28.8740 0.4592 0.0000 0.0000 -54.5342 -13.8657 14.4063 25.9244 0.0000 0.0000 -12.3745 -1.3751 14.6013 -1.2211 0.0000 -0.0000
 9.0696 -22.1526 34.8773 35.6062 5.0606 -19.0206 0.5858 0.2108 4.0319 2.5381 0.0706 0.4394 4.6432 4.1108 8.3158 1.7274 0.0905 1.0368 -43.6537 -7.2091 1.6975 14.9472 5.0926 3.9408 -22.3050 7.2637 35.8266 -10.2073 -3.5714 53.2813 0.0000 0.0000 15.0178 -7.4394 15.0240 5.2883 0.0000 -0.0000 -0.0000 -0.0000 -0.0000 0.0000 -24.2696 -11.9971 -30.1381 -7.2628 -0.0006 -58.4698 -0.0000 -0.0000 -19.3211 -4.7161 -12.4739 -1.8854 0.0000 0.0000 -0.0000 0.0000 0.0000 0.0000 26.1603 18.6134 3.0467 82.6601 0.0000 0.0000 2.4465 -16.5173 -28.9158 0.5301 0.0000 0.0000 -54.7856 -13.8527 14.2897 26.0144 0.0000 0.0000 -12.4102 -1.4239 14.5883 -1.1718 0.0000 -0.0000
 9.0781 -22.1341 34.8644 35.7852 5.0113 -18.9987 0.5109 0.2361 4.0309 2.5021 0.0567 0.4439 4.7210 4.1538 8.3490 1.7453 0.1003 1.0449 -43.7817 -7.3018 1.5980 15.0300 5.1639 3.9986 -22.4390 7.3213 35.8921 -10.2452 -3.5077 53.3806 0.0000 0.0000 14.5759 -7.5982 14.9635 5.3267 0.0000 -0.0000 0.0000 -0.0000 -0.0000 0.0000 -24.4501 -12.0717 -30.2456 -7.3021 -0.1213 -58.6418 -0.0000 -0.0000 -18.9840 -4.5845 -12.3406 -1.7792 -0.0000 0.0000 -0.0000 -0.0000 0.0000 -0.0000 26.2144 18.7059 2.8696 82.4418 0.0000 0.0000 2.3758 -16.5696 -28.9080 0.5715 0.0000 0.0000 -55.0360 -13.8276 14.2601 26.0448 0.0000 0.0000 -12.4288 -1.4546 14.5284 -1.1112 0.0000 -0.0000
 9.0836 -22.1188 34.8541 35.9144 5.0014 -18.9460 0.5030 0.2406 4.0317 2.4596 0.0512 0.4451 4.7891 4.1901 8.3709 1.7571 0.1208 1.0428 -43.8826 -7.4185 1.4790 15.1008 5.2458 4.0655 -22.5558 7.3467 35.9484 -10.2600 -3.4474 53.4784 0.0000 0.0000 14.1464 -7.7909 14.9023 5.3739 0.0000 0.0000 0.0000 0.0000 -0.0000 0.0000 -24.6114 -12.1570 -30.3549 -7.3460 -0.2139 -58.8053 -0.0000 -0.0000 -18.6815 -4.4102 -12.2249 -1.6721 0.0000 0.0000 0.0000 0.0000 0.0000 -0.0000 26.3071 18.7411 2.7005 82.2528 0.0000 0.0000 2.3416 -16.6512 -28.8643 0.5792 0.0000 0.0000 -55.2045 -13.8084 14.3001 26.0318 0.0000 0.0000 -12.4489 -1.4799 14.4187 -1.0391 0.0000 -0.0000
 9.0892 -22.1045 34.8455 36.0554 4.9765 -18.8755 0.4588 0.2597 4.0296 2.4446 0.0431 0.4528 4.8409 4.2184 8.3779 1.7651 0.1317 1.0446 -43.9644 -7.4946 1.3944 15.1790 5.2866 4.1064 -22.6541 7.4017 36.0027 -10.2795 -3.4328 53.5602 0.0000 0.0000 13.7427 -7.9787 14.8358 5.4157 0.0000 0.0000 -0.0000 0.0000 -0.0000 -0.0000 -24.7458 -12.2099 -30.4543 -7.3887 -0.3107 -58.9665 -0.0000 -0.0000 -18.4116 -4.2049 -12.1172 -1.5681 0.0000 -0.0000 0.0000 0.0000 -0.0000 0.0000 26.3575 18.7707 2.5257 82.1124 0.0000 0.0000 2.3394 -16.7627 -28.7618 0.5515 0.0000 0.0000 -55.3628 -13.7730 14.4351 25.9721 0.0000 0.0000 -12.4574 -1.4977 14.2750 -0.9574 0.0000 -0.0000
 9.0933 -22.0925 34.8391 36.1649 4.9717 -18.7911 0.4563 0.2507 4.0491 2.4304 0.0458 0.4468 4.8795 4.2568 8.3817 1.7634 0.1732 1.0272 -44.0211 -7.6405 1.2320 15.2493 5.3887 4.1992 -22.7271 7.3935 36.0511 -10.2629 -3.3764 53.6276 0.0000 0.0000 13.3555 -8.1863 14.7451 5.4589 0.0000 0.0000 -0.0000 0.0000 -0.0000 0.0000 -24.8579 -12.3102 -30.5646 -7.4316 -0.3891 -59.1195 -0.0000 -0.0000 -18.1619 -3.9730 -12.0227 -1.4749 0.0000 0.0000 0.0000 -0.0000 0.0000 0.0000 26.4188 18.7755 2.3553 82.0067 0.0000 0.0000 2.3760 -16.9030 -28.6092 0.4902 0.0000 0.0000 -55.4686 -13.7422 14.6386 25.8872 0.0000 0.0000 -12.4647 -1.5166 14.1060 -0.8719 0.0000 -0.0000
 9.0972 -22.0818 34.8342 36.2616 4.9637 -18.6910 0.4519 0.2566 4.0685 2.4417 0.0484 0.4477 4.8949 4.2804 8.3747 1.7598 0.2010 1.0092 -44.0626 -7.7366 1.1214 15.3323 5.4419 4.2527 -22.7843 7.4235 36.1013 -10.2382 -3.3391 53.6882 0.0000 0.0000 12.9739 -8.3563 14.6578 5.4919 -0.0000 0.0000 0.0000 -0.0000 0.0000 0.0000 -24.9372 -12.3928 -30.6594 -7.4782 -0.4698 -59.2672 -0.0000 -0.0000 -17.9442 -3.7485 -11.9295 -1.3881 -0.0000 0.0000 -0.0000 -0.0000 -0.0000 0.0000 26.4721 18.7782 2.1724 81.9372 0.0000 0.0000 2.4475 -17.0695 -28.4019 0.3959 0.0000 0.0000 -55.5531 -13.6981 14.8930 25.7890 0.0000 0.0000 -12.4616 -1.5330 13.9290 -0.8032 0.0000 -0.0000
 9.1000 -22.0728 34.8309 36.3343 4.9701 -18.5773 0.4664 0.2571 4.0921 2.4670 0.0551 0.4474 4.8966 4.2965 8.3575 1.7520 0.2276 0.9916 -44.0897 -7.8176 1.0170 15.4248 5.4837 4.3023 -22.8340 7.4574 36.1580 -10.1864 -3.2931 53.7290 0.0000 0.0000 12.6063 -8.5441 14.5473 5.5518 -0.0000 0.0000 -0.0000 0.0000 -0.0000 -0.0000 -25.0124 -12.4575 -30.7507 -7.4921 -0.5715 -59.4134 -0.0000 -0.0000 -17.7402 -3.4873 -11.8284 -1.3135 0.0000 -0.0000 0.0000 0.0000 0.0000 -0.0000 26.5357 18.7671 1.9800 81.8948 0.0000 0.0000 2.5541 -17.2579 -28.1504 0.2781 0.0000 0.0000 -55.6164 -13.6532 15.1544 25.7058 0.0000 0.0000 -12.4481 -1.5437 13.7508 -0.7519 0.0000 -0.0000
